<svg width="24" height="22" viewBox="0 0 24 22" fill="none" xmlns="http://www.w3.org/2000/svg">
<g filter="url(#filter0_d_328_79)">
<path d="M11.997 16.532C12.2419 16.532 12.4783 16.622 12.6614 16.7847C12.8444 16.9475 12.9613 17.1717 12.99 17.415L12.997 17.532V18.988C12.9965 19.2428 12.8987 19.4878 12.7236 19.6729C12.5486 19.8581 12.3095 19.9694 12.0551 19.9842C11.8007 19.999 11.5503 19.9162 11.355 19.7526C11.1596 19.589 11.0341 19.357 11.004 19.104L10.997 18.988V17.532C10.997 17.2668 11.1023 17.0124 11.2899 16.8249C11.4774 16.6374 11.7318 16.532 11.997 16.532ZM18.033 14.6L19.063 15.63C19.245 15.8187 19.3456 16.0714 19.3432 16.3336C19.3407 16.5958 19.2354 16.8465 19.0498 17.0318C18.8643 17.2171 18.6134 17.3221 18.3512 17.3242C18.089 17.3263 17.8365 17.2253 17.648 17.043L16.619 16.014C16.4368 15.8254 16.336 15.5728 16.3383 15.3106C16.3406 15.0484 16.4458 14.7976 16.6312 14.6122C16.8166 14.4268 17.0674 14.3216 17.3296 14.3193C17.5918 14.317 17.8444 14.4178 18.033 14.6ZM7.37299 14.6C7.56046 14.7875 7.66578 15.0418 7.66578 15.307C7.66578 15.5722 7.56046 15.8265 7.37299 16.014L6.34499 17.044C6.15735 17.2316 5.90285 17.3371 5.63749 17.3371C5.37213 17.3371 5.11763 17.2316 4.92999 17.044C4.74235 16.8564 4.63693 16.6019 4.63693 16.3365C4.63693 16.0711 4.74235 15.8166 4.92999 15.629L5.95999 14.599C6.14752 14.4115 6.40183 14.3062 6.66699 14.3062C6.93216 14.3062 7.18646 14.4115 7.37399 14.599L7.37299 14.6ZM12.01 4.472C13.4753 4.472 14.8806 5.0541 15.9168 6.09024C16.9529 7.12637 17.535 8.53168 17.535 9.997C17.535 11.4623 16.9529 12.8676 15.9168 13.9038C14.8806 14.9399 13.4753 15.522 12.01 15.522C10.5447 15.522 9.13936 14.9399 8.10323 13.9038C7.06709 12.8676 6.48499 11.4623 6.48499 9.997C6.48499 8.53168 7.06709 7.12637 8.10323 6.09024C9.13936 5.0541 10.5447 4.472 12.01 4.472ZM11.25 7C11.0688 7.00001 10.8936 7.06564 10.7571 7.18477C10.6205 7.30389 10.5316 7.46845 10.507 7.648L10.5 7.75V10.754L10.507 10.856C10.5293 11.0183 10.6042 11.1688 10.7201 11.2846C10.836 11.4003 10.9867 11.4749 11.149 11.497L11.25 11.504H13.25L13.352 11.497C13.5141 11.4747 13.6646 11.4 13.7803 11.2843C13.896 11.1686 13.9707 11.0182 13.993 10.856L14 10.754L13.993 10.652C13.9707 10.4898 13.896 10.3394 13.7803 10.2237C13.6646 10.108 13.5141 10.0333 13.352 10.011L13.25 10.004H12V7.75L11.994 7.648C11.9693 7.46828 11.8803 7.30358 11.7435 7.18444C11.6067 7.06529 11.4314 6.99977 11.25 7ZM20.977 9.018C21.2319 9.01828 21.477 9.11588 21.6624 9.29085C21.8477 9.46582 21.9592 9.70495 21.9742 9.95939C21.9891 10.2138 21.9063 10.4644 21.7427 10.6598C21.5791 10.8553 21.3471 10.9809 21.094 11.011L20.977 11.018H19.522C19.2671 11.0177 19.022 10.9201 18.8366 10.7452C18.6513 10.5702 18.5398 10.331 18.5248 10.0766C18.5099 9.82216 18.5927 9.57162 18.7563 9.37617C18.9198 9.18071 19.1519 9.0551 19.405 9.025L19.522 9.018H20.978H20.977ZM4.47999 8.99C4.73487 8.99028 4.98002 9.08788 5.16536 9.26285C5.3507 9.43782 5.46223 9.67695 5.47716 9.93139C5.4921 10.1858 5.40932 10.4364 5.24573 10.6318C5.08214 10.8273 4.85009 10.9529 4.59699 10.983L4.47999 10.99H3.02299C2.7682 10.9895 2.52321 10.8917 2.33807 10.7166C2.15292 10.5416 2.04158 10.3025 2.02678 10.0481C2.01197 9.79374 2.09482 9.54332 2.25841 9.34797C2.42199 9.15263 2.65398 9.02709 2.90699 8.997L3.02299 8.99H4.47999ZM6.24999 2.874L6.34499 2.957L7.37399 3.987C7.55334 4.16696 7.65746 4.40843 7.66522 4.66238C7.67297 4.91633 7.58378 5.16371 7.41574 5.35428C7.24771 5.54484 7.01344 5.66431 6.76052 5.6884C6.50759 5.71249 6.25498 5.63941 6.05399 5.484L5.95999 5.4L4.92999 4.371C4.75064 4.19104 4.64652 3.94957 4.63876 3.69562C4.63101 3.44167 4.72021 3.19429 4.88824 3.00372C5.05627 2.81316 5.29054 2.6937 5.54347 2.6696C5.79639 2.64551 6.049 2.71859 6.24999 2.874ZM19.063 2.957C19.2352 3.12919 19.3386 3.35829 19.3539 3.60132C19.3692 3.84435 19.2952 4.0846 19.146 4.277L19.063 4.371L18.033 5.401C17.853 5.58035 17.6116 5.68447 17.3576 5.69223C17.1037 5.69998 16.8563 5.61079 16.6657 5.44275C16.4751 5.27472 16.3557 5.04045 16.3316 4.78753C16.3075 4.5346 16.3806 4.28199 16.536 4.081L16.619 3.986L17.649 2.956C17.8365 2.76853 18.0908 2.66321 18.356 2.66321C18.6212 2.66321 18.8755 2.76953 19.063 2.957ZM12 0.0130005C12.2449 0.0130328 12.4813 0.102957 12.6644 0.265716C12.8474 0.428475 12.9643 0.652749 12.993 0.896L13 1.013V2.468C13.002 2.72443 12.9055 2.97185 12.7302 3.15911C12.555 3.34637 12.3146 3.45917 12.0586 3.47419C11.8026 3.48921 11.5506 3.40531 11.3547 3.23982C11.1588 3.07433 11.034 2.83991 11.006 2.585L11 2.468V1.013C11 0.747784 11.1053 0.49343 11.2929 0.305894C11.4804 0.118357 11.7348 0.0130005 12 0.0130005Z" fill="#DAD8F7"/>
</g>
<defs>
<filter id="filter0_d_328_79" x="-1.97491" y="0.0130005" width="27.9508" height="27.9729" filterUnits="userSpaceOnUse" color-interpolation-filters="sRGB">
<feFlood flood-opacity="0" result="BackgroundImageFix"/>
<feColorMatrix in="SourceAlpha" type="matrix" values="0 0 0 0 0 0 0 0 0 0 0 0 0 0 0 0 0 0 127 0" result="hardAlpha"/>
<feOffset dy="4"/>
<feGaussianBlur stdDeviation="2"/>
<feComposite in2="hardAlpha" operator="out"/>
<feColorMatrix type="matrix" values="0 0 0 0 0 0 0 0 0 0 0 0 0 0 0 0 0 0 0.25 0"/>
<feBlend mode="normal" in2="BackgroundImageFix" result="effect1_dropShadow_328_79"/>
<feBlend mode="normal" in="SourceGraphic" in2="effect1_dropShadow_328_79" result="shape"/>
</filter>
</defs>
</svg>
